<svg width="21" height="18" viewBox="0 0 21 18" fill="none" xmlns="http://www.w3.org/2000/svg">
<path fill-rule="evenodd" clip-rule="evenodd" d="M17.4833 16.7902L17.484 16.7885L17.5014 16.745L20.5002 1.62592V1.57682C20.5002 1.20012 20.361 0.871256 20.0581 0.673996C19.793 0.501334 19.4882 0.489038 19.2745 0.505258C19.0485 0.522413 18.8354 0.578829 18.6879 0.625789C18.612 0.649949 18.5484 0.673227 18.503 0.690834C18.4802 0.69967 18.4617 0.707169 18.4483 0.712755L18.4351 0.718313L1.71526 7.27725L1.71066 7.2789C1.70163 7.28219 1.68969 7.28664 1.67526 7.29225C1.64651 7.30345 1.60737 7.31946 1.56139 7.3403C1.47111 7.38122 1.34637 7.44436 1.21987 7.53099C1.00502 7.67812 0.595904 8.02645 0.664986 8.57867C0.722207 9.03608 1.03751 9.32658 1.25008 9.47698C1.36403 9.55761 1.47304 9.61575 1.55287 9.65375C1.59332 9.67301 1.62767 9.68776 1.65326 9.69818C1.66609 9.7034 1.67682 9.70758 1.68512 9.71073L1.69574 9.71469L1.70253 9.71721L4.62777 10.702C4.6179 10.8856 4.6361 11.0727 4.68478 11.2573L6.15006 16.8157C6.3238 17.4748 6.92002 17.9339 7.60159 17.9334C8.21252 17.9329 8.75435 17.5633 8.98454 17.0119L11.2722 14.5658L15.2012 17.5781L15.2571 17.6025C15.614 17.7582 15.9475 17.8076 16.2525 17.7659C16.557 17.7243 16.7989 17.5966 16.9807 17.4512C17.1595 17.3081 17.2821 17.1466 17.3592 17.025C17.3984 16.9633 17.4276 16.909 17.4478 16.8681C17.458 16.8476 17.466 16.8302 17.472 16.8167L17.4796 16.7993L17.4822 16.7928L17.4833 16.7902ZM6.13518 10.875C6.10187 10.7486 6.15416 10.6153 6.26444 10.5452L16.1865 4.24432C16.1865 4.24432 16.77 3.89002 16.7492 4.24432C16.7492 4.24432 16.8533 4.30689 16.5406 4.59861C16.244 4.87569 9.46894 11.4167 8.7834 12.0786C8.74383 12.1168 8.72021 12.1607 8.70627 12.2139L7.60046 16.4334L6.13518 10.875Z" fill="white"/>
</svg>
